<?xml version="1.0" encoding="UTF-8"?>
<svg id="_图层_1" data-name="图层 1" xmlns="http://www.w3.org/2000/svg" viewBox="0 0 154.98 202.53">
  <defs>
    <style>
      .cls-1 {
        fill: #605847;
      }

      .cls-2 {
        fill: #fff;
      }

      .cls-3 {
        fill: #cbcbe7;
        stroke: #fff;
        stroke-miterlimit: 10;
        stroke-width: 2px;
      }
    </style>
  </defs>
  <ellipse id="_椭圆_49" data-name="椭圆 49" class="cls-1" cx="77.49" cy="184.91" rx="25.16" ry="15.65"/>
  <path class="cls-3" d="M78.75,189.62c-.5.78-1.63.79-2.14.02l-19.75-29.77c-1.46-2-3.39-3.63-5.65-4.64C11.65,137.66-10.63,87.77,5.06,46.95,22.44,1.74,78.85-12.42,118.92,11.5c17.1,10.21,29.48,26.83,34,46.26,5.79,24.92-.66,56.1-19.19,74.42-7.2,7.12-17.31,15.52-30.15,22.26-2.5,1.31-4.65,3.26-6.05,5.72l-18.78,29.45Z"/>
  <circle class="cls-2" cx="77.49" cy="75.95" r="68.49"/>
</svg>