<?xml version="1.0" encoding="UTF-8"?>
<svg id="_图层_1" data-name="图层 1" xmlns="http://www.w3.org/2000/svg" viewBox="0 0 234.67 214.86">
  <defs>
    <style>
      .cls-1 {
        fill: #fff;
      }

      .cls-2 {
        fill: none;
      }
    </style>
  </defs>
  <g id="_路径_54-2" data-name="路径 54-2">
    <path class="cls-2" d="M121.17,212.76c-56.59-40.47-86.27-77.27-98.46-108.09C-9.8,22.12,83.25-17.37,121.17,31.37c37.93-48.76,131.02-9.25,98.42,73.31-12.18,30.81-41.84,67.62-98.42,108.09Z"/>
    <path class="cls-1" d="M121.16,196c44.31-32.94,73.9-66.11,85.82-96.3,8.53-21.61,7.79-40.77-2.17-55.4-8.66-12.74-23.86-20.65-39.66-20.65-13.43,0-25.26,5.69-33.3,16.03l-10.69,13.75-10.69-13.75c-8.04-10.34-19.87-16.03-33.3-16.03-15.8,0-31,7.91-39.66,20.65-9.95,14.63-10.7,33.79-2.17,55.4,11.92,30.18,41.51,63.35,85.82,96.3M121.16,212.76c-56.58-40.46-86.25-77.27-98.42-108.08C-9.86,22.11,83.26-17.37,121.16,31.37c37.9-48.74,131.02-9.25,98.42,73.31-12.17,30.81-41.84,67.62-98.42,108.08Z"/>
  </g>
</svg>