<?xml version="1.0" encoding="UTF-8"?>
<svg id="_图层_1" data-name="图层 1" xmlns="http://www.w3.org/2000/svg" viewBox="0 0 234.67 214.86">
  <defs>
    <style>
      .cls-1 {
        fill: #fff;
      }
    </style>
  </defs>
  <path class="cls-1" d="M107.05,213.71c-14.1,0-27.8-2.76-40.71-8.23-12.46-5.27-23.62-12.81-33.24-22.41-9.6-9.6-17.14-20.79-22.41-33.24-5.42-12.89-8.2-26.58-8.2-40.68s2.76-27.8,8.23-40.71c5.27-12.46,12.81-23.62,22.4-33.24,9.59-9.6,20.78-17.14,33.24-22.4,12.89-5.44,26.58-8.23,40.71-8.23h.25l-.03,14.18h-.23c-24.15,0-46.84,9.39-63.9,26.48-17.09,17.09-26.51,39.77-26.51,63.92s9.39,46.84,26.48,63.9c17.06,17.09,39.77,26.48,63.9,26.48s46.81-9.39,63.9-26.46c17.06-17.06,26.48-39.75,26.48-63.87h14.18c0,14.1-2.79,27.8-8.23,40.68-5.27,12.46-12.81,23.62-22.41,33.22-9.6,9.6-20.79,17.11-33.22,22.38-12.91,5.47-26.58,8.23-40.71,8.23h0ZM211.35,70.02h-14.18V19.36h-50.84V5.18h65.01v64.84ZM211.35,70.02"/>
  <path class="cls-1" d="M199.17,7.19l10.03,10.03-90.28,90.28-10.03-10.03L199.17,7.19ZM199.17,7.19"/>
</svg>